# xmcd
#
# Track frame offsets: 
#        150
#        18893
#        60946
#        77900
#        94210
#        123239
#        152985
#        169769
#        181432
#        200957
#
# Disc length: 2897 seconds
#
# Revision: 0
# Processed by: cddbd v1.5.2PL0 Copyright (c) Steve Scherf et al.
# Submitted via: ExactAudioCopy v1.0b3
#
DISCID=800b4f0a
DTITLE=Layla Zoe - Sleep littel girl
DYEAR=1900
DGENRE=
TTITLE0=Unbekannter Künstler - Track 01
TTITLE1=Unbekannter Künstler - Track 02
TTITLE2=Unbekannter Künstler - Track 03
TTITLE3=Unbekannter Künstler - Track 04
TTITLE4=Unbekannter Künstler - Track 05
TTITLE5=Unbekannter Künstler - Track 06
TTITLE6=Unbekannter Künstler - Track 07
TTITLE7=Unbekannter Künstler - Track 08
TTITLE8=Unbekannter Künstler - Track 09
TTITLE9=Unbekannter Künstler - Track 10
EXTD=
EXTT0=
EXTT1=
EXTT2=
EXTT3=
EXTT4=
EXTT5=
EXTT6=
EXTT7=
EXTT8=
EXTT9=
PLAYORDER=
